<svg xmlns="http://www.w3.org/2000/svg" viewBox="0 0 96 96" fill="none">
  <g stroke="#f1eadb" stroke-linecap="round" stroke-linejoin="round">
    <path
      d="M18 51C18 30 31 16 49 14C65 12 80 22 83 40C85 52 80 67 68 76C57 84 40 86 28 80"
      opacity=".95"
      stroke-width="4.5"
    />
    <path
      d="M20 61C28 74 41 81 56 80C68 79 77 73 83 64"
      opacity=".72"
      stroke-width="6"
    />
    <path
      d="M27 28C22 34 19 42 19 51"
      opacity=".8"
      stroke-width="3.2"
    />
    <path
      d="M48 17L48 80"
      stroke-width="3.6"
    />
    <path
      d="M48 17L45.7 21.6H50.3L48 17Z"
      fill="#f1eadb"
      stroke="none"
    />
    <path
      d="M42 31L48 26L54 31"
      stroke-width="3"
    />
    <path
      d="M38 37C41 34 44 34 48 34C52 34 55 34 58 37"
      stroke-width="3.2"
    />
    <path
      d="M42 37L40 43L48 80L56 43L54 37"
      stroke-width="3"
    />
    <path
      d="M44 43H52"
      opacity=".8"
      stroke-width="2.2"
    />
    <circle cx="48" cy="27" r="1.9" fill="#f1eadb" stroke="none" />
  </g>
</svg>
